<svg width="238" height="32" viewBox="0 0 238 32" fill="none" xmlns="http://www.w3.org/2000/svg">
<path d="M15.12 31.2C12.2933 31.2 9.8 30.5867 7.64 29.36C5.50667 28.1333 3.82667 26.4267 2.6 24.24C1.4 22.0533 0.8 19.52 0.8 16.64C0.8 14.3467 1.18667 12.2133 1.96 10.24C2.73333 8.26666 3.8 6.54667 5.16 5.08C6.54667 3.61333 8.17333 2.46667 10.04 1.64C11.9067 0.813332 13.92 0.399998 16.08 0.399998C18.3467 0.399998 20.4667 0.853332 22.44 1.76C24.44 2.64 26.0267 3.84 27.2 5.36C25.2533 7.62666 23.44 9.21333 21.76 10.12C19.7067 6.09333 17.24 4.08 14.36 4.08C12.4133 4.08 10.84 4.89333 9.64 6.52C8.46667 8.14667 7.88 10.3333 7.88 13.08C7.88 14.8667 8.12 16.6267 8.6 18.36C9.10667 20.0667 9.77333 21.6133 10.6 23C11.4533 24.3867 12.4 25.4933 13.44 26.32C14.5067 27.12 15.5867 27.52 16.68 27.52C17.48 27.52 18.3067 27.32 19.16 26.92C20.0133 26.4933 20.8133 25.92 21.56 25.2C22.3333 24.4533 22.9733 23.6267 23.48 22.72L27.2 25.64C23.9467 29.3467 19.92 31.2 15.12 31.2ZM36.2972 31.08C35.3105 31.08 34.1905 31.0533 32.9372 31C31.7105 30.9733 30.6705 30.9467 29.8172 30.92C29.7905 30.3067 29.7639 29.3467 29.7372 28.04C29.7372 26.7067 29.7239 25.1467 29.6972 23.36C29.6972 21.5733 29.6839 19.68 29.6572 17.68C29.6572 15.6533 29.6439 13.6267 29.6172 11.6C29.6172 9.54667 29.6172 7.6 29.6172 5.76C29.6172 3.89333 29.6172 2.26667 29.6172 0.879999C30.2039 0.853333 30.9105 0.826666 31.7372 0.799998C32.5639 0.773331 33.4039 0.759998 34.2572 0.759998C35.1372 0.733332 35.8839 0.719999 36.4972 0.719999C36.4972 1.97333 36.4972 3.44 36.4972 5.12C36.4972 6.77333 36.4839 8.52 36.4572 10.36C37.3905 9.74667 38.3639 9.26667 39.3772 8.92C40.4172 8.57333 41.4305 8.4 42.4172 8.4C45.5639 8.4 47.8839 10.2267 49.3772 13.88C50.8705 17.5333 51.6172 23.2133 51.6172 30.92C50.9505 30.9733 50.0972 31.0133 49.0572 31.04C48.0172 31.0667 46.5772 31.08 44.7372 31.08C44.7372 18.0933 43.3372 11.6 40.5372 11.6C39.8439 11.6 39.1239 11.9467 38.3772 12.64C37.6572 13.3333 37.0172 14.2267 36.4572 15.32C36.4305 17.16 36.4039 18.9467 36.3772 20.68C36.3772 22.3867 36.3639 23.96 36.3372 25.4C36.3372 26.84 36.3239 28.0667 36.2972 29.08C36.2972 30.0667 36.2972 30.7333 36.2972 31.08ZM62.4738 31.2C60.2071 31.2 58.3538 30.6533 56.9138 29.56C55.5004 28.44 54.7938 26.9867 54.7938 25.2C54.7938 23.5733 55.3804 22.0667 56.5538 20.68C57.7538 19.2933 59.4071 18.12 61.5138 17.16C63.6204 16.1733 66.0338 15.4933 68.7538 15.12C67.7938 12.7733 66.4738 11.6 64.7938 11.6C63.7804 11.6 62.4738 11.9867 60.8738 12.76C59.2738 13.5333 57.6471 14.5467 55.9938 15.8L54.7938 11.8C58.7671 9.53333 62.5271 8.4 66.0738 8.4C68.8471 8.4 71.0738 9.16 72.7538 10.68C74.4338 12.1733 75.6604 14.5733 76.4338 17.88C77.2071 21.16 77.5938 25.5067 77.5938 30.92C77.0871 30.9467 76.1804 30.9733 74.8738 31C73.5938 31.0533 72.2071 31.08 70.7138 31.08C70.7138 30.2267 70.7004 29.3867 70.6738 28.56C67.9271 30.32 65.1938 31.2 62.4738 31.2ZM61.3938 24.92C61.3938 25.7467 61.7138 26.4 62.3538 26.88C63.0204 27.36 63.9004 27.6 64.9938 27.6C66.9138 27.6 68.7671 26.7733 70.5538 25.12C70.3938 22.2933 70.0871 19.9067 69.6338 17.96C68.5938 18.1733 67.5804 18.52 66.5938 19C65.6338 19.48 64.7538 20.0533 63.9538 20.72C63.1804 21.36 62.5538 22.0533 62.0738 22.8C61.6204 23.52 61.3938 24.2267 61.3938 24.92ZM87.88 31.08C86.9467 31.08 85.88 31.0533 84.68 31C83.5067 30.9733 82.4133 30.9467 81.4 30.92C81.3733 30.12 81.3467 28.9733 81.32 27.48C81.2933 25.9867 81.2667 24.2533 81.24 22.28C81.24 20.28 81.2267 18.1467 81.2 15.88C81.2 13.5867 81.2 11.2533 81.2 8.88C81.7867 8.85333 82.5067 8.82667 83.36 8.8C84.2133 8.77333 85.0667 8.76 85.92 8.76C86.7733 8.73333 87.4933 8.72 88.08 8.72C88.08 9.49333 88.08 10.2667 88.08 11.04C89.12 10.2133 90.1867 9.57333 91.28 9.12C92.4 8.64 93.48 8.4 94.52 8.4C95.88 8.4 97.12 8.77333 98.24 9.52C99.36 10.24 100.267 11.2267 100.96 12.48C101.68 13.7333 102.093 15.1467 102.2 16.72C101.133 17.0667 100.067 17.3733 99 17.64C97.9333 17.9067 96.92 18.12 95.96 18.28C95.96 17.08 95.8 15.9733 95.48 14.96C95.1867 13.9467 94.7867 13.1333 94.28 12.52C93.7733 11.9067 93.2133 11.6 92.6 11.6C91.88 11.6 91.08 12.04 90.2 12.92C89.32 13.8 88.6133 14.88 88.08 16.16C88.0533 19.5467 88.0267 22.5733 88 25.24C87.9733 27.88 87.9333 29.8267 87.88 31.08ZM104.798 31.08C104.772 30.2267 104.745 29.0533 104.718 27.56C104.692 26.04 104.665 24.2933 104.638 22.32C104.638 20.32 104.625 18.1733 104.598 15.88C104.598 13.56 104.598 11.1733 104.598 8.72C105.185 8.72 105.905 8.73333 106.758 8.76C107.612 8.76 108.465 8.77333 109.318 8.8C110.198 8.82667 110.918 8.85333 111.478 8.88C111.478 9.54667 111.478 10.2267 111.478 10.92C113.745 9.24 116.052 8.4 118.398 8.4C120.558 8.4 122.305 9.16 123.638 10.68C124.972 12.2 125.932 14.6267 126.518 17.96C127.132 21.2933 127.438 25.6667 127.438 31.08C126.825 31.08 126.092 31.0667 125.238 31.04C124.385 31.04 123.545 31.0267 122.718 31C121.892 30.9733 121.172 30.9467 120.558 30.92C120.558 26.2 120.425 22.4267 120.158 19.6C119.892 16.7733 119.452 14.7333 118.838 13.48C118.225 12.2267 117.398 11.6 116.358 11.6C115.505 11.6 114.638 11.96 113.758 12.68C112.878 13.4 112.118 14.3467 111.478 15.52C111.452 17.7867 111.425 19.9333 111.398 21.96C111.398 23.9867 111.385 25.7867 111.358 27.36C111.332 28.9067 111.305 30.0933 111.278 30.92C110.452 30.9467 109.438 30.9733 108.238 31C107.065 31.0533 105.918 31.08 104.798 31.08ZM141.233 31.2C139.073 31.2 137.126 30.7067 135.393 29.72C133.686 28.7067 132.326 27.3467 131.313 25.64C130.326 23.9067 129.833 21.9467 129.833 19.76C129.833 17.5733 130.313 15.6267 131.273 13.92C132.259 12.2133 133.593 10.8667 135.273 9.88C136.979 8.89333 138.913 8.4 141.073 8.4C143.099 8.4 144.913 8.85333 146.513 9.76C148.139 10.64 149.446 11.88 150.433 13.48C151.446 15.08 152.046 16.96 152.233 19.12L136.353 22.08C136.859 23.8133 137.659 25.2267 138.753 26.32C139.846 27.3867 141.073 27.92 142.433 27.92C143.686 27.92 144.926 27.4933 146.153 26.64C147.379 25.76 148.326 24.64 148.993 23.28L151.833 25.68C150.526 27.44 148.953 28.8 147.113 29.76C145.273 30.72 143.313 31.2 141.233 31.2ZM135.833 18.16C135.833 18.32 135.833 18.4533 135.833 18.56L145.153 17.28C144.966 15.5733 144.419 14.2 143.513 13.16C142.606 12.12 141.499 11.6 140.193 11.6C138.833 11.6 137.766 12.1867 136.993 13.36C136.219 14.5067 135.833 16.1067 135.833 18.16ZM171.453 30.88C171.453 29.68 171.466 28.2267 171.493 26.52C171.52 24.7867 171.546 22.9333 171.573 20.96C171.626 18.96 171.68 16.9467 171.733 14.92C171.786 12.8667 171.84 10.92 171.893 9.08C171.973 7.21333 172.04 5.57333 172.093 4.16C172.146 2.72 172.2 1.62667 172.253 0.879999C172.946 0.826665 173.92 0.786665 175.173 0.759998C176.453 0.733332 178.04 0.719999 179.933 0.719999C182.12 3.94667 184.4 7.38667 186.773 11.04C189.173 14.6667 191.613 18.5467 194.093 22.68L193.213 0.679999C193.906 0.679999 194.653 0.706666 195.453 0.759998C196.28 0.786665 197.08 0.826665 197.853 0.879999C197.853 3.12 197.84 5.52 197.813 8.08C197.786 10.6133 197.76 13.1333 197.733 15.64C197.706 18.1467 197.666 20.48 197.613 22.64C197.56 24.7733 197.506 26.5733 197.453 28.04C197.426 29.5067 197.386 30.4667 197.333 30.92C196.773 30.9467 196.013 30.9733 195.053 31C194.12 31.0267 193.173 31.04 192.213 31.04C191.253 31.0667 190.466 31.08 189.853 31.08C187.746 27.64 185.4 24.0133 182.813 20.2C180.253 16.3867 177.666 12.6 175.053 8.84L176.093 31.12C174.6 31.12 173.053 31.04 171.453 30.88ZM212.444 31.2C210.284 31.2 208.337 30.7067 206.604 29.72C204.897 28.7067 203.537 27.3467 202.524 25.64C201.537 23.9067 201.044 21.9467 201.044 19.76C201.044 17.5733 201.524 15.6267 202.484 13.92C203.47 12.2133 204.804 10.8667 206.484 9.88C208.19 8.89333 210.124 8.4 212.284 8.4C214.31 8.4 216.124 8.85333 217.724 9.76C219.35 10.64 220.657 11.88 221.644 13.48C222.657 15.08 223.257 16.96 223.444 19.12L207.564 22.08C208.07 23.8133 208.87 25.2267 209.964 26.32C211.057 27.3867 212.284 27.92 213.644 27.92C214.897 27.92 216.137 27.4933 217.364 26.64C218.59 25.76 219.537 24.64 220.204 23.28L223.044 25.68C221.737 27.44 220.164 28.8 218.324 29.76C216.484 30.72 214.524 31.2 212.444 31.2ZM207.044 18.16C207.044 18.32 207.044 18.4533 207.044 18.56L216.364 17.28C216.177 15.5733 215.63 14.2 214.724 13.16C213.817 12.12 212.71 11.6 211.404 11.6C210.044 11.6 208.977 12.1867 208.204 13.36C207.43 14.5067 207.044 16.1067 207.044 18.16ZM233.528 0.719999C233.475 2.24 233.435 3.73333 233.408 5.2C233.382 6.66667 233.368 8.02667 233.368 9.28C233.368 13.4933 233.488 16.9467 233.728 19.64C233.995 22.3067 234.395 24.36 234.928 25.8C235.462 27.2133 236.168 28.1467 237.048 28.6L234.248 31.8C232.808 31.64 231.595 31.1733 230.608 30.4C229.648 29.6 228.875 28.4133 228.288 26.84C227.702 25.24 227.275 23.1733 227.008 20.64C226.768 18.1067 226.648 15.0133 226.648 11.36C226.648 9.84 226.662 8.18667 226.688 6.4C226.742 4.58667 226.795 2.74667 226.848 0.879999C227.622 0.826665 228.542 0.786665 229.608 0.759998C230.675 0.733332 231.982 0.719999 233.528 0.719999Z" fill="#F7EEE3"/>
</svg>
