<svg width="47" height="46" viewBox="0 0 47 46" fill="none" xmlns="http://www.w3.org/2000/svg">
<g id="Group">
<path id="Vector" fill-rule="evenodd" clip-rule="evenodd" d="M34.2875 4.15132C34.3266 4.19668 34.3628 4.24368 34.3958 4.29234L34.3971 4.29481L34.4011 4.301L34.4128 4.31955L34.4546 4.38511C34.4929 4.44284 34.5447 4.52448 34.61 4.63003C35.4115 5.9369 36.1333 7.28618 36.772 8.67126C37.9365 11.2071 39.1663 14.6298 39.1663 17.8905C39.1663 21.5804 36.5356 23.6264 34.2222 24.6828C33.0688 25.2021 31.8512 25.5824 30.598 25.8146C28.6689 27.5121 26.1324 28.4536 23.4997 28.4494C21.9298 28.4506 20.3799 28.1161 18.9655 27.4708C17.5511 26.8254 16.3087 25.886 15.3308 24.7224L15.2708 24.7174C14.9869 24.6929 14.7042 24.6574 14.4235 24.611C13.5356 24.4673 12.6711 24.2153 11.8515 23.8614C10.8985 23.4409 9.88534 22.7952 9.10984 21.8043C8.32259 20.7987 7.83301 19.5048 7.83301 17.8905C7.83301 14.8389 9.40229 11.3716 10.8436 8.7962C11.71 7.25169 12.6717 5.75688 13.7237 4.31955L13.7655 4.26389L13.7811 4.24038L13.896 4.07958C13.9939 3.94722 14.1336 3.77033 14.3216 3.56252C14.8312 3.00586 15.4098 2.50954 16.045 2.08432C17.6273 1.01556 20.0687 0 23.5702 0C27.0625 0 29.722 1.01062 31.5132 2.03237C32.4075 2.54324 33.0851 3.05535 33.5459 3.44748C33.7968 3.66309 34.0364 3.89014 34.264 4.12782L34.277 4.14266L34.2836 4.14885L34.2875 4.15132ZM15.9758 5.58128L15.9131 5.67281L15.9105 5.67529L15.9 5.68766L15.857 5.74703C15.8169 5.79899 15.7595 5.87733 15.6846 5.98206C14.7629 7.26121 13.9165 8.58763 13.1492 9.95525C11.734 12.4861 10.4441 15.4895 10.4441 17.8893C10.4441 19.0013 10.7705 19.772 11.2066 20.3298C11.6557 20.9013 12.2758 21.3194 12.9547 21.6188C13.2772 21.761 13.6036 21.8736 13.9143 21.9614C13.6656 20.8999 13.4786 19.8262 13.3542 18.7453C13.2067 17.4167 13.1636 15.9435 13.4273 14.641C13.6871 13.3644 14.2994 11.9926 15.7016 11.2788C17.5672 10.3301 20.7241 9.06091 23.5075 8.18637C24.8953 7.74971 26.2492 7.39222 27.3315 7.22894C27.8628 7.14977 28.4086 7.10524 28.889 7.15101C29.265 7.18812 30.0444 7.32295 30.4753 7.99216C33.9741 12.7781 34.0264 17.1632 33.1399 20.3657C32.884 21.2922 32.5524 22.1123 32.2103 22.81C32.5002 22.7061 32.7926 22.5873 33.0877 22.4537C34.9807 21.5879 36.5552 20.2099 36.5552 17.8893C36.5552 15.1407 35.4977 12.0928 34.3776 9.65838C33.7811 8.36502 33.1072 7.10496 32.3592 5.88434L32.2365 5.68766L32.2051 5.65673L32.1908 5.64189C32.0654 5.51935 31.9357 5.40094 31.8017 5.28687C31.2955 4.8608 30.7482 4.48062 30.1671 4.15132C28.7088 3.31883 26.509 2.47397 23.5715 2.47397C20.6418 2.47397 18.7253 3.31388 17.5581 4.1006C17.096 4.40914 16.6748 4.76922 16.3035 5.17307C16.1894 5.30061 16.0822 5.43355 15.9823 5.57138L15.9758 5.58128ZM16.6364 22.1346L16.5385 21.7425C16.2763 20.6697 16.0802 19.5835 15.951 18.4892C15.8152 17.2609 15.7982 16.0647 15.9927 15.1085C16.1912 14.1288 16.5541 13.6551 16.9366 13.4596C18.643 12.5913 21.6575 11.3753 24.33 10.5354C25.6695 10.1148 26.8654 9.80558 27.7401 9.67446C28.0704 9.62498 28.3133 9.60642 28.4778 9.60766C31.3474 13.6501 31.3173 17.199 30.6136 19.7398C30.3077 20.8323 29.8451 21.8798 29.2389 22.8533C29.0161 23.2115 28.7698 23.5561 28.5013 23.8849L28.4921 23.8961L28.4647 23.9282L28.4595 23.9332L28.4582 23.9344C28.308 24.1007 28.2071 24.3017 28.1657 24.517C27.2681 25.1482 26.2383 25.5899 25.1456 25.8126C24.0528 26.0353 22.9224 26.0337 21.8303 25.808C20.7382 25.5823 19.7097 25.1377 18.8141 24.5041C17.9185 23.8705 17.175 23.0626 16.6364 22.1346Z" fill="white"/>
<path id="Vector_2" fill-rule="evenodd" clip-rule="evenodd" d="M15.5544 29.508C15.2776 28.9859 14.9369 28.3415 14.3611 28.4664C7.30589 29.9879 0 34.3817 0 39.0513V45.7681H47V39.0513C47 35.3725 42.4671 31.8669 37.0947 29.7986L37.0765 29.7652L37.0699 29.7529L37.0269 29.7727C35.5999 29.2284 34.1142 28.7831 32.6389 28.4664C31.9822 28.3242 31.3033 29.1802 31.0069 29.7158H15.6667L15.5544 29.508ZM33.165 31.142C33.736 31.2913 34.3022 31.4591 34.8636 31.6455C34.8792 32.0685 34.8453 32.567 34.7722 33.0767C34.6982 33.6044 34.5795 34.1256 34.4171 34.6353H32.6389C32.3965 34.6354 32.1589 34.6994 31.9528 34.8202C31.7466 34.9411 31.5801 35.1139 31.4717 35.3193L30.1662 37.7933C30.0754 37.9649 30.028 38.1542 30.0278 38.3462V40.8202C30.0278 41.1482 30.1653 41.4629 30.4102 41.6949C30.655 41.9268 30.9871 42.0572 31.3333 42.0572H33.9444V39.5832H32.6389V38.6381L33.4457 37.1092H37.0543L37.8611 38.6381V39.5832H36.5556V42.0572H39.1667C39.5129 42.0572 39.845 41.9268 40.0898 41.6949C40.3347 41.4629 40.4722 41.1482 40.4722 40.8202V38.3462C40.472 38.1542 40.4246 37.9649 40.3338 37.7933L39.0283 35.3193C38.9199 35.1139 38.7534 34.9411 38.5472 34.8202C38.3411 34.6994 38.1035 34.6354 37.8611 34.6353H37.1222C37.2818 33.9807 37.39 33.3159 37.4459 32.6462C38.7189 33.2152 39.9017 33.8683 40.9266 34.5759C43.4358 36.3126 44.3889 37.9355 44.3889 39.0513V43.2942H2.61111V39.0513C2.61111 37.9343 3.56417 36.3114 6.07345 34.5771C7.33461 33.705 8.83992 32.9158 10.4536 32.2627C10.4987 33.2484 10.6656 34.2257 10.951 35.1746L10.9614 35.2092C10.1809 35.6771 9.60003 36.3912 9.32132 37.2255C9.04262 38.0597 9.08404 38.9605 9.43828 39.7686C9.79253 40.5768 10.4368 41.2403 11.2573 41.6421C12.0778 42.0438 13.0217 42.1579 13.9224 41.9642C14.8231 41.7705 15.6225 41.2814 16.1795 40.5834C16.7366 39.8854 17.0153 39.0234 16.9666 38.1495C16.9179 37.2757 16.5448 36.4462 15.9132 35.8077C15.2817 35.1692 14.4323 34.7627 13.5151 34.66L13.4577 34.4819C13.3196 34.0211 13.2171 33.5515 13.1509 33.0767C13.0777 32.5971 13.0471 32.1126 13.0595 31.6281C13.0638 31.5242 13.0704 31.4319 13.0791 31.3511C13.2357 31.3049 13.3924 31.2608 13.5491 31.2187L14.0909 32.191H32.5828L33.165 31.142ZM13.0556 39.6017C13.7579 39.6017 14.3611 39.0575 14.3611 38.3462C14.3611 37.6362 13.7579 37.0907 13.0556 37.0907C12.3532 37.0907 11.75 37.6349 11.75 38.3462C11.75 39.0562 12.3532 39.6017 13.0556 39.6017Z" fill="white"/>
</g>
</svg>
