<svg width="24" height="24" viewBox="0 0 24 24" fill="none" xmlns="http://www.w3.org/2000/svg">
<g id="flower_2_line" clip-path="url(#clip0_20_3)">
<g id="Group">
<path id="Vector" fill-rule="evenodd" clip-rule="evenodd" d="M7 3.33989C8.026 2.74789 9.209 2.78989 10.24 3.20889C10.9273 3.49566 11.5472 3.92277 12.06 4.46289C12.581 3.95063 13.1932 3.54025 13.865 3.25289C14.862 2.83989 16.005 2.76589 17 3.33989C17.994 3.91389 18.503 4.94189 18.644 6.01089C18.734 6.69889 18.682 7.43889 18.497 8.18089C19.2211 8.35397 19.901 8.67654 20.493 9.12789C21.373 9.81189 22 10.8159 22 11.9999C22 13.1779 21.38 14.1779 20.507 14.8599C19.9348 15.3006 19.2788 15.6201 18.579 15.7989C18.776 16.5199 18.829 17.2519 18.731 17.9369C18.575 19.0339 18.021 20.0709 17.001 20.6599C15.974 21.2529 14.791 21.2099 13.76 20.7909C13.073 20.5041 12.4534 20.077 11.941 19.5369C11.391 20.0669 10.776 20.4829 10.135 20.7469C9.138 21.1599 7.995 21.2339 7 20.6599C6.006 20.0859 5.498 19.0579 5.356 17.9889C5.26925 17.2627 5.31911 16.5267 5.503 15.8189C4.77899 15.6456 4.09914 15.3231 3.507 14.8719C2.627 14.1879 2 13.1849 2 11.9999C2 10.8219 2.62 9.82289 3.493 9.13989C4.06482 8.69894 4.72049 8.3791 5.42 8.19989C5.2247 7.50494 5.17298 6.77749 5.268 6.06189C5.425 4.96589 5.979 3.92889 7 3.33989ZM9.487 5.05989C8.89 4.81989 8.375 4.85489 8 5.07089C7.627 5.28689 7.339 5.71089 7.249 6.34389C7.168 6.91489 7.261 7.60889 7.579 8.30289L7.693 8.53389L8.443 9.94689L6.845 10.0029C5.974 10.0329 5.231 10.3179 4.726 10.7129C4.224 11.1079 4 11.5699 4 11.9999C4 12.4329 4.226 12.8979 4.734 13.2929C5.198 13.6529 5.86 13.9209 6.636 13.9849L6.873 13.9979L8.373 14.0409L7.755 15.4089C7.371 16.2599 7.255 17.0839 7.339 17.7269C7.424 18.3719 7.692 18.7499 8 18.9279C8.308 19.1059 8.77 19.1479 9.37 18.8999C9.91 18.6759 10.495 18.2379 11.004 17.5999L11.17 17.3799L12.046 16.1619L12.833 17.4399C13.294 18.1869 13.915 18.6949 14.513 18.9389C15.11 19.1809 15.625 19.1449 16 18.9289C16.373 18.7129 16.661 18.2889 16.751 17.6559C16.832 17.0849 16.739 16.3909 16.421 15.6969L16.307 15.4659L15.557 14.0539L17.155 13.9969C18.026 13.9669 18.769 13.6819 19.274 13.2869C19.776 12.8929 20 12.4309 20 11.9999C20 11.5669 19.774 11.1019 19.266 10.7069C18.802 10.3469 18.14 10.0799 17.364 10.0149L17.128 10.0019L15.628 9.95889L16.245 8.59089C16.629 7.74089 16.745 6.91689 16.661 6.27289C16.576 5.62789 16.308 5.24989 16 5.07189C15.692 4.89389 15.23 4.85189 14.63 5.09989C14.09 5.32389 13.505 5.76189 12.997 6.39989L12.83 6.61989L11.954 7.83789L11.167 6.55989C10.706 5.81289 10.085 5.30389 9.487 5.05989ZM12 7.99989C13.0609 7.99989 14.0783 8.42132 14.8284 9.17147C15.5786 9.92161 16 10.939 16 11.9999C16 13.0608 15.5786 14.0782 14.8284 14.8283C14.0783 15.5785 13.0609 15.9999 12 15.9999C10.9391 15.9999 9.92172 15.5785 9.17157 14.8283C8.42143 14.0782 8 13.0608 8 11.9999C8 10.939 8.42143 9.92161 9.17157 9.17147C9.92172 8.42132 10.9391 7.99989 12 7.99989ZM12 9.99989C11.4696 9.99989 10.9609 10.2106 10.5858 10.5857C10.2107 10.9608 10 11.4695 10 11.9999C10 12.5303 10.2107 13.039 10.5858 13.4141C10.9609 13.7892 11.4696 13.9999 12 13.9999C12.5304 13.9999 13.0391 13.7892 13.4142 13.4141C13.7893 13.039 14 12.5303 14 11.9999C14 11.4695 13.7893 10.9608 13.4142 10.5857C13.0391 10.2106 12.5304 9.99989 12 9.99989Z" fill="#FE5701"/>
</g>
</g>
<defs>
<clipPath id="clip0_20_3">
<rect width="24" height="24" fill="white"/>
</clipPath>
</defs>
</svg>
