<svg width="45" height="50" viewBox="0 0 45 50" fill="none" xmlns="http://www.w3.org/2000/svg">
<g id="Group 1238218">
<g id="Group">
<path id="Vector" d="M43 47.7511V40.8884C43 34.4192 43 31.1823 40.7476 29.1738C38.4977 27.1631 34.8718 27.1631 27.625 27.1631H17.375C10.1282 27.1631 6.50231 27.1631 4.25244 29.1738C2 31.1823 2 34.4192 2 40.8884C2 43.0204 2 44.0864 2.3895 44.926C2.64706 45.4814 3.02473 45.9861 3.50092 46.4112C3.9771 46.8363 4.54246 47.1735 5.16469 47.4034C6.10513 47.7511 7.29925 47.7511 9.6875 47.7511V28.3069M16.0938 27.1631L23.7812 47.7511" stroke="white" stroke-width="3" stroke-linecap="round" stroke-linejoin="round"/>
<path id="Vector_2" d="M22.5 40.8885H28.9062C29.9257 40.8885 30.9033 41.25 31.6242 41.8935C32.345 42.537 32.75 43.4098 32.75 44.3198C32.75 45.2299 32.345 46.1026 31.6242 46.7461C30.9033 47.3896 29.9257 47.7511 28.9062 47.7511H23.7812M31.4688 12.294V10.0064C31.4688 8.95503 31.2368 7.9139 30.786 6.94251C30.3353 5.97113 29.6747 5.0885 28.8419 4.34504C28.009 3.60157 27.0203 3.01182 25.9322 2.60945C24.8441 2.20709 23.6778 2 22.5 2C21.3222 2 20.1559 2.20709 19.0678 2.60945C17.9797 3.01182 16.991 3.60157 16.1581 4.34504C15.3253 5.0885 14.6647 5.97113 14.214 6.94251C13.7632 7.9139 13.5312 8.95503 13.5313 10.0064V12.294C13.5312 13.3454 13.7632 14.3866 14.214 15.3579C14.6647 16.3293 15.3253 17.212 16.1581 17.9554C16.991 18.6989 17.9797 19.2886 19.0678 19.691C20.1559 20.0934 21.3222 20.3005 22.5 20.3005C23.6778 20.3005 24.8441 20.0934 25.9322 19.691C27.0203 19.2886 28.009 18.6989 28.8419 17.9554C29.6747 17.212 30.3353 16.3293 30.786 15.3579C31.2368 14.3866 31.4688 13.3454 31.4688 12.294Z" stroke="white" stroke-width="3" stroke-linecap="round" stroke-linejoin="round"/>
</g>
</g>
</svg>
